<svg width="31" height="32" viewBox="0 0 31 32" fill="none" xmlns="http://www.w3.org/2000/svg">
<g clip-path="url(#clip0)">
<path d="M15.4906 0.855347C7.11195 0.855347 0.331055 7.60394 0.331055 15.9443C0.331055 24.2839 7.11123 31.0332 15.4906 31.0332C23.8693 31.0332 30.6502 24.2846 30.6502 15.9443C30.6502 7.6047 23.87 0.855347 15.4906 0.855347ZM15.4906 29.0214C8.24619 29.0214 2.35231 23.155 2.35231 15.9443C2.35231 8.73354 8.24619 2.86719 15.4906 2.86719C22.7351 2.86719 28.629 8.7336 28.629 15.9443C28.629 23.155 22.7351 29.0214 15.4906 29.0214Z" fill="#2FC7F7"/>
<path d="M19.1898 16.9762H15.8861V11.3735C15.8861 10.818 15.4336 10.3676 14.8754 10.3676C14.3172 10.3676 13.8647 10.8179 13.8647 11.3735V17.9821C13.8647 18.5376 14.3172 18.9881 14.8754 18.9881H19.1897C19.7479 18.9881 20.2004 18.5377 20.2004 17.9821C20.2004 17.4265 19.7479 16.9762 19.1898 16.9762Z" fill="#2FC7F7"/>
</g>
<defs>
<clipPath id="clip0">
<rect x="0.331055" y="0.855347" width="30.3192" height="30.1779" fill="white"/>
</clipPath>
</defs>
</svg>
