<svg width="32" height="32" viewBox="0 0 32 32" fill="none" xmlns="http://www.w3.org/2000/svg">
<path fill-rule="evenodd" clip-rule="evenodd" d="M24.5121 28.0942C24.2056 28.0942 23.9308 27.8621 23.8668 27.5248C23.7943 27.1397 24.0237 26.7639 24.3803 26.6856C27.3634 26.0259 28.8701 24.3134 29.8653 23.0622C29.166 21.843 27.5894 19.8644 25.3689 19.038C22.8083 18.0857 22.2586 17.7228 22.2586 16.0295C22.2586 15.7135 22.4511 15.436 22.7312 15.347C23.1491 15.2139 23.6704 15.2103 24.2741 15.2068C25.1732 15.2011 26.2917 15.194 26.6575 14.668C26.9672 14.221 26.8374 13.9015 26.1908 12.8317C26.0326 12.5698 25.8659 12.2922 25.7057 11.9947C24.4594 9.67447 24.3658 8.64743 24.257 7.45813L24.2359 7.22468C23.9644 4.37703 22.5572 2.83256 20.0539 2.63399C17.8657 2.80694 16.5099 4.0176 16.0242 6.23181C15.9404 6.61472 15.5845 6.8503 15.2306 6.75991C14.8767 6.66952 14.6572 6.2859 14.7415 5.9037C15.3611 3.07882 17.2323 1.41123 20.0097 1.20981C20.0387 1.20838 20.0684 1.20838 20.0981 1.20981C23.2736 1.44112 25.2088 3.52437 25.5469 7.07877L25.5693 7.31863C25.6701 8.4268 25.7433 9.2275 26.846 11.2801C26.9936 11.5556 27.1485 11.8111 27.2948 12.0538C27.9111 13.0737 28.6097 14.2296 27.7114 15.5214C26.9534 16.6132 25.4724 16.6224 24.2821 16.6302C24.0731 16.6317 23.8615 16.6324 23.6704 16.6409C23.8451 16.9391 24.3493 17.1541 25.798 17.6929C28.6783 18.7633 30.5818 21.4167 31.2527 22.8159C31.3753 23.0729 31.3424 23.3853 31.169 23.6045L31.0688 23.7319C30.0255 25.0572 28.2789 27.2771 24.6452 28.0792C24.6004 28.0892 24.5556 28.0942 24.5121 28.0942Z" fill="#2FC7F7"/>
<path fill-rule="evenodd" clip-rule="evenodd" d="M12.9676 31.3866C6.36075 31.3866 1.72198 30.3261 1.52755 30.2806C1.2125 30.208 0.993014 29.8991 1.00751 29.551C1.26193 23.7881 4.58513 21.9995 7.06335 21.1547C8.91148 20.5248 9.9087 19.4907 9.91859 19.48C10.1783 19.2053 10.5948 19.2095 10.8499 19.49C11.1037 19.7697 11.1023 20.2181 10.844 20.4935C10.7959 20.5455 9.63122 21.7718 7.46013 22.512C5.14536 23.3013 2.75546 24.697 2.36593 29.0051C3.79091 29.2834 7.80484 29.9631 12.9676 29.9631C18.1304 29.9631 22.1443 29.2834 23.5693 29.0051C23.1791 24.697 20.7898 23.3013 18.4751 22.5127C16.3033 21.7718 15.1393 20.5455 15.0906 20.4935C14.8322 20.2173 14.8302 19.7661 15.086 19.4864C15.341 19.2081 15.7576 19.206 16.0166 19.48C16.0436 19.5085 17.0389 20.5298 18.8718 21.1554C21.3494 21.9995 24.6733 23.7874 24.9277 29.551C24.9422 29.8991 24.7227 30.208 24.4077 30.2806C24.2132 30.3261 19.5738 31.3866 12.9676 31.3866Z" fill="#2FC7F7"/>
<path fill-rule="evenodd" clip-rule="evenodd" d="M8.03556 14.9355C8.05269 14.9469 8.07115 14.959 8.0896 14.9711C8.3394 15.1391 8.55625 15.2843 8.63732 15.5889C8.89371 16.5526 10.6311 20.1461 12.9676 20.1461C15.3041 20.1461 17.0409 16.5526 17.2979 15.5882C17.379 15.2843 17.5952 15.1391 17.8456 14.9711C17.8641 14.959 17.8819 14.9469 17.899 14.9355C18.5239 13.6942 18.3973 13.1875 18.3413 13.0587C18.278 12.912 18.1482 12.8651 18.1469 12.8651C17.8213 12.8003 17.5906 12.4843 17.6084 12.127C17.609 12.1121 17.6749 10.6793 17.3533 9.36832C17.3223 9.25017 16.5162 6.3164 12.9676 6.3164C9.38408 6.3164 8.58788 9.34056 8.58063 9.37116C8.25965 10.6793 8.32556 12.1121 8.32622 12.127C8.34402 12.4843 8.11333 12.8003 7.78773 12.8651C7.7818 12.8679 7.65064 12.912 7.58737 13.0729C7.53596 13.2039 7.42259 13.7163 8.03556 14.9355ZM12.9676 21.5695C9.79861 21.5695 7.88128 17.5005 7.44166 16.2122C7.42584 16.2016 7.40936 16.1916 7.3942 16.1802C7.19581 16.0471 7.05213 15.9517 6.9526 15.7624C6.2322 14.3852 6.04568 13.2721 6.39895 12.4564C6.55648 12.0927 6.78717 11.8593 7.00203 11.7105C7.00533 11.1077 7.05279 10.0408 7.3072 9.00379C7.66246 7.57961 9.30165 4.89281 12.9676 4.89281C16.6335 4.89281 18.2727 7.57961 18.6266 9.00094C18.8824 10.0401 18.9298 11.107 18.9331 11.7105C19.1473 11.8593 19.378 12.0927 19.5355 12.4564C19.8888 13.2721 19.7029 14.3852 18.9819 15.7617C18.883 15.9517 18.7393 16.0471 18.5403 16.1802C18.5251 16.1916 18.5093 16.2016 18.4935 16.2122C18.0526 17.5012 16.1359 21.5695 12.9676 21.5695Z" fill="#2FC7F7"/>
<path fill-rule="evenodd" clip-rule="evenodd" d="M24.5121 28.0942C24.2056 28.0942 23.9308 27.8621 23.8668 27.5248C23.7943 27.1397 24.0237 26.7639 24.3803 26.6856C27.3634 26.0259 28.8701 24.3134 29.8653 23.0622C29.166 21.843 27.5894 19.8644 25.3689 19.038C22.8083 18.0857 22.2586 17.7228 22.2586 16.0295C22.2586 15.7135 22.4511 15.436 22.7312 15.347C23.1491 15.2139 23.6704 15.2103 24.2741 15.2068C25.1732 15.2011 26.2917 15.194 26.6575 14.668C26.9672 14.221 26.8374 13.9015 26.1908 12.8317C26.0326 12.5698 25.8659 12.2922 25.7057 11.9947C24.4594 9.67447 24.3658 8.64743 24.257 7.45813L24.2359 7.22468C23.9644 4.37703 22.5572 2.83256 20.0539 2.63399C17.8657 2.80694 16.5099 4.0176 16.0242 6.23181C15.9404 6.61472 15.5845 6.8503 15.2306 6.75991C14.8767 6.66952 14.6572 6.2859 14.7415 5.9037C15.3611 3.07882 17.2323 1.41123 20.0097 1.20981C20.0387 1.20838 20.0684 1.20838 20.0981 1.20981C23.2736 1.44112 25.2088 3.52437 25.5469 7.07877L25.5693 7.31863C25.6701 8.4268 25.7433 9.2275 26.846 11.2801C26.9936 11.5556 27.1485 11.8111 27.2948 12.0538C27.9111 13.0737 28.6097 14.2296 27.7114 15.5214C26.9534 16.6132 25.4724 16.6224 24.2821 16.6302C24.0731 16.6317 23.8615 16.6324 23.6704 16.6409C23.8451 16.9391 24.3493 17.1541 25.798 17.6929C28.6783 18.7633 30.5818 21.4167 31.2527 22.8159C31.3753 23.0729 31.3424 23.3853 31.169 23.6045L31.0688 23.7319C30.0255 25.0572 28.2789 27.2771 24.6452 28.0792C24.6004 28.0892 24.5556 28.0942 24.5121 28.0942Z" stroke="#2FC7F7" stroke-width="0.9"/>
<path fill-rule="evenodd" clip-rule="evenodd" d="M12.9676 31.3866C6.36075 31.3866 1.72198 30.3261 1.52755 30.2806C1.2125 30.208 0.993014 29.8991 1.00751 29.551C1.26193 23.7881 4.58513 21.9995 7.06335 21.1547C8.91148 20.5248 9.9087 19.4907 9.91859 19.48C10.1783 19.2053 10.5948 19.2095 10.8499 19.49C11.1037 19.7697 11.1023 20.2181 10.844 20.4935C10.7959 20.5455 9.63122 21.7718 7.46013 22.512C5.14536 23.3013 2.75546 24.697 2.36593 29.0051C3.79091 29.2834 7.80484 29.9631 12.9676 29.9631C18.1304 29.9631 22.1443 29.2834 23.5693 29.0051C23.1791 24.697 20.7898 23.3013 18.4751 22.5127C16.3033 21.7718 15.1393 20.5455 15.0906 20.4935C14.8322 20.2173 14.8302 19.7661 15.086 19.4864C15.341 19.2081 15.7576 19.206 16.0166 19.48C16.0436 19.5085 17.0389 20.5298 18.8718 21.1554C21.3494 21.9995 24.6733 23.7874 24.9277 29.551C24.9422 29.8991 24.7227 30.208 24.4077 30.2806C24.2132 30.3261 19.5738 31.3866 12.9676 31.3866Z" stroke="#2FC7F7" stroke-width="0.9"/>
<path fill-rule="evenodd" clip-rule="evenodd" d="M8.03556 14.9355C8.05269 14.9469 8.07115 14.959 8.0896 14.9711C8.3394 15.1391 8.55625 15.2843 8.63732 15.5889C8.89371 16.5526 10.6311 20.1461 12.9676 20.1461C15.3041 20.1461 17.0409 16.5526 17.2979 15.5882C17.379 15.2843 17.5952 15.1391 17.8456 14.9711C17.8641 14.959 17.8819 14.9469 17.899 14.9355C18.5239 13.6942 18.3973 13.1875 18.3413 13.0587C18.278 12.912 18.1482 12.8651 18.1469 12.8651C17.8213 12.8003 17.5906 12.4843 17.6084 12.127C17.609 12.1121 17.6749 10.6793 17.3533 9.36832C17.3223 9.25017 16.5162 6.3164 12.9676 6.3164C9.38408 6.3164 8.58788 9.34056 8.58063 9.37116C8.25965 10.6793 8.32556 12.1121 8.32622 12.127C8.34402 12.4843 8.11333 12.8003 7.78773 12.8651C7.7818 12.8679 7.65064 12.912 7.58737 13.0729C7.53596 13.2039 7.42259 13.7163 8.03556 14.9355ZM12.9676 21.5695C9.79861 21.5695 7.88128 17.5005 7.44166 16.2122C7.42584 16.2016 7.40936 16.1916 7.3942 16.1802C7.19581 16.0471 7.05213 15.9517 6.9526 15.7624C6.2322 14.3852 6.04568 13.2721 6.39895 12.4564C6.55648 12.0927 6.78717 11.8593 7.00203 11.7105C7.00533 11.1077 7.05279 10.0408 7.3072 9.00379C7.66246 7.57961 9.30165 4.89281 12.9676 4.89281C16.6335 4.89281 18.2727 7.57961 18.6266 9.00094C18.8824 10.0401 18.9298 11.107 18.9331 11.7105C19.1473 11.8593 19.378 12.0927 19.5355 12.4564C19.8888 13.2721 19.7029 14.3852 18.9819 15.7617C18.883 15.9517 18.7393 16.0471 18.5403 16.1802C18.5251 16.1916 18.5093 16.2016 18.4935 16.2122C18.0526 17.5012 16.1359 21.5695 12.9676 21.5695Z" stroke="#2FC7F7" stroke-width="0.9"/>
</svg>
