<svg width="32" height="31" viewBox="0 0 32 31" fill="none" xmlns="http://www.w3.org/2000/svg">
<g clip-path="url(#clip0)">
<path d="M30.9805 10.7365C30.7099 10.4183 30.3125 10.2358 29.8903 10.2358H2.40633C1.98453 10.2358 1.58748 10.4183 1.31686 10.7361C1.0643 11.0329 0.950193 11.419 1.00035 11.8023L2.62288 28.656C2.62431 28.669 2.62573 28.682 2.6275 28.6947C2.77022 29.758 3.67741 30.5597 4.73792 30.5597H27.5588C28.6738 30.5597 29.6035 29.7098 29.6738 28.656L31.2963 11.8026C31.3464 11.4194 31.2327 11.0333 30.9805 10.7365ZM27.5644 28.4521C27.5633 28.4504 27.5588 28.45 27.5588 28.45L4.75664 28.4532C4.74746 28.4489 4.73402 28.4332 4.72981 28.4208L3.18171 12.3459H29.1149L27.5644 28.4521Z" fill="#2FC7F7"/>
<path d="M28.6292 6.18398C28.3607 5.87631 27.9704 5.69978 27.5578 5.69978H4.77228C4.36001 5.69978 3.96788 5.88297 3.69626 6.20225C3.42321 6.52365 3.30519 6.94208 3.37163 7.33692L4.0075 11.4509L6.1027 11.1302L5.58941 7.8095H26.7411L26.2282 11.1302L28.323 11.4509L28.9603 7.32495C29.0196 6.90942 28.8991 6.49342 28.6292 6.18398Z" fill="#2FC7F7"/>
<path d="M25.4884 1.71916C25.22 1.41113 24.8292 1.23425 24.4159 1.23425H7.91852C7.50625 1.23425 7.11412 1.41744 6.84249 1.73672C6.56909 2.05813 6.45143 2.47655 6.51822 2.87422L7.15409 6.91785L9.24823 6.59155L8.73742 3.34398H23.5897L23.0524 6.58271L25.1437 6.92657L25.8184 2.86113C25.8784 2.4449 25.758 2.02895 25.4884 1.71916Z" fill="#2FC7F7"/>
<path d="M20.5988 16.8821H11.6965C11.1112 16.8821 10.6367 17.3543 10.6367 17.9369C10.6367 18.5196 11.1112 18.9918 11.6965 18.9918H20.5988C21.1841 18.9918 21.6586 18.5196 21.6586 17.9369C21.6585 17.3543 21.1841 16.8821 20.5988 16.8821Z" fill="#2FC7F7"/>
</g>
<defs>
<clipPath id="clip0">
<rect x="0.98877" y="0.808838" width="30.3191" height="30.1779" fill="white"/>
</clipPath>
</defs>
</svg>
