<svg width="70" height="71" viewBox="0 0 70 71" fill="none" xmlns="http://www.w3.org/2000/svg">
<g filter="url(#filter0_d)">
<path fill-rule="evenodd" clip-rule="evenodd" d="M4.53223 11.3533C4.53223 9.14413 6.32309 7.35327 8.53223 7.35327H55.5322C57.7414 7.35327 59.5322 9.14413 59.5322 11.3533V58.6059C59.5322 60.8151 57.7414 62.6059 55.5322 62.6059H8.53223C6.32309 62.6059 4.53223 60.8151 4.53223 58.6059V11.3533Z" fill="#2FC7F7"/>
</g>
<path fill-rule="evenodd" clip-rule="evenodd" d="M57.4805 25.3296C64.384 25.3296 69.9805 19.768 69.9805 12.9075C69.9805 6.04692 64.384 0.485352 57.4805 0.485352C50.5769 0.485352 44.9805 6.04692 44.9805 12.9075C44.9805 19.768 50.5769 25.3296 57.4805 25.3296Z" fill="url(#paint0_linear)"/>
<path d="M60.1152 10.8037C60.1152 11.3389 59.9531 11.7939 59.6289 12.1689C59.3047 12.5439 58.8496 12.8018 58.2637 12.9424V12.9775C58.9551 13.0635 59.4785 13.2744 59.834 13.6104C60.1895 13.9424 60.3672 14.3916 60.3672 14.958C60.3672 15.7822 60.0684 16.4248 59.4707 16.8857C58.873 17.3428 58.0195 17.5713 56.9102 17.5713C55.9805 17.5713 55.1562 17.417 54.4375 17.1084V15.5674C54.7695 15.7354 55.1348 15.8721 55.5332 15.9775C55.9316 16.083 56.3262 16.1357 56.7168 16.1357C57.3145 16.1357 57.7559 16.0342 58.041 15.8311C58.3262 15.6279 58.4688 15.3018 58.4688 14.8525C58.4688 14.4502 58.3047 14.165 57.9766 13.9971C57.6484 13.8291 57.125 13.7451 56.4062 13.7451H55.7559V12.3564H56.418C57.082 12.3564 57.5664 12.2705 57.8711 12.0986C58.1797 11.9229 58.334 11.624 58.334 11.2021C58.334 10.5537 57.9277 10.2295 57.1152 10.2295C56.834 10.2295 56.5469 10.2764 56.2539 10.3701C55.9648 10.4639 55.6426 10.626 55.2871 10.8564L54.4492 9.6084C55.2305 9.0459 56.1621 8.76465 57.2441 8.76465C58.1309 8.76465 58.8301 8.94434 59.3418 9.30371C59.8574 9.66309 60.1152 10.1631 60.1152 10.8037Z" fill="white"/>
<g clip-path="url(#clip0)">
<path d="M46.6697 27.7267C46.4482 27.631 46.1875 27.6644 46.0032 27.8105C41.4371 31.4007 35.6095 36.0027 33.776 37.5351C32.7469 38.3967 31.3187 38.3967 30.2872 37.534C28.3329 35.9007 21.7886 30.7406 18.0612 27.8104C17.8757 27.6643 17.6145 27.6321 17.3947 27.7266C17.1738 27.8218 17.0322 28.0267 17.0322 28.2526V42.8311C17.0322 44.11 18.1534 45.1499 19.5322 45.1499H44.5323C45.911 45.1499 47.0322 44.11 47.0322 42.8311V28.2526C47.0322 28.0267 46.8906 27.8212 46.6697 27.7267Z" fill="white"/>
<path d="M17.6587 24.9801C21.776 28.2143 29.0008 33.9043 31.1242 35.6785C31.4093 35.9179 31.715 36.0396 32.0324 36.0396C32.3492 36.0396 32.6544 35.919 32.9388 35.6807C35.064 33.9049 42.2888 28.2143 46.4062 24.9801C46.6626 24.7791 46.7016 24.4259 46.4941 24.1802C46.0143 23.6124 45.299 23.2869 44.5324 23.2869H19.5324C18.7658 23.2869 18.0505 23.6124 17.5708 24.1802C17.3632 24.4259 17.4023 24.7791 17.6587 24.9801Z" fill="white"/>
</g>
<defs>
<filter id="filter0_d" x="0.532227" y="7.35327" width="63" height="63.2527" filterUnits="userSpaceOnUse" color-interpolation-filters="sRGB">
<feFlood flood-opacity="0" result="BackgroundImageFix"/>
<feColorMatrix in="SourceAlpha" type="matrix" values="0 0 0 0 0 0 0 0 0 0 0 0 0 0 0 0 0 0 127 0"/>
<feOffset dy="4"/>
<feGaussianBlur stdDeviation="2"/>
<feColorMatrix type="matrix" values="0 0 0 0 0 0 0 0 0 0 0 0 0 0 0 0 0 0 0.25 0"/>
<feBlend mode="normal" in2="BackgroundImageFix" result="effect1_dropShadow"/>
<feBlend mode="normal" in="SourceGraphic" in2="effect1_dropShadow" result="shape"/>
</filter>
<linearGradient id="paint0_linear" x1="44.9805" y1="0.485352" x2="44.9805" y2="25.3296" gradientUnits="userSpaceOnUse">
<stop stop-color="#FF7878"/>
<stop offset="1" stop-color="#FF4F4F"/>
</linearGradient>
<clipPath id="clip0">
<rect x="17.0322" y="20.8025" width="30" height="27.8255" fill="white"/>
</clipPath>
</defs>
</svg>
