<svg width="11" height="11" viewBox="0 0 11 11" fill="none" xmlns="http://www.w3.org/2000/svg">
<path fill-rule="evenodd" clip-rule="evenodd" d="M8.55764 3.70676V2.71183H2.5293V3.70676H8.55764ZM8.55764 5.18734V4.19241H2.5293V5.18734H8.55764ZM8.55764 6.66792V5.67299H2.5293V6.66792H8.55764ZM10.559 1.71709V10.6004L8.55759 8.6342H1.51648C1.24319 8.6342 1.0101 8.5355 0.817193 8.33809C0.624285 8.14068 0.527832 7.90774 0.527832 7.63927V1.71709C0.527832 1.44861 0.624285 1.21963 0.817193 1.03011C1.0101 0.840604 1.24319 0.74585 1.51648 0.74585H9.57035C9.84363 0.74585 10.0767 0.840604 10.2696 1.03011C10.4625 1.21963 10.559 1.44861 10.559 1.71709Z" fill="#2FC7F7"/>
</svg>
