<svg width="12" height="9" viewBox="0 0 12 9" fill="none" xmlns="http://www.w3.org/2000/svg">
<path d="M6.00747 8.63727C3.00724 8.63727 0.657913 5.08808 0.558768 4.93587C0.466088 4.79332 0.466088 4.59762 0.558768 4.45507C0.657913 4.30286 3.00724 0.753662 6.00747 0.753662C9.00771 0.753662 11.357 4.30286 11.454 4.45507C11.5467 4.59762 11.5467 4.79332 11.454 4.93587C11.357 5.08808 9.00771 8.63727 6.00747 8.63727ZM1.31745 4.69668C1.8843 5.46498 3.79825 7.82306 6.00747 7.82306C8.22101 7.82306 10.1328 5.4674 10.6975 4.69668C10.1306 3.92595 8.2167 1.57029 6.00747 1.57029C3.79178 1.57029 1.88215 3.92354 1.31745 4.69668Z" fill="#838A91"/>
<path d="M6.00709 7.14155C4.80441 7.14155 3.82373 6.04466 3.82373 4.69408C3.82373 3.3435 4.80441 2.24902 6.00709 2.24902C7.20977 2.24902 8.19045 3.34592 8.19045 4.69649C8.19045 6.04707 7.20977 7.14155 6.00709 7.14155ZM6.00709 3.06324C5.20531 3.06324 4.55224 3.7953 4.55224 4.69408C4.55224 5.59285 5.20531 6.32492 6.00709 6.32492C6.80888 6.32492 7.46195 5.59285 7.46195 4.69408C7.46195 3.7953 6.80888 3.06324 6.00709 3.06324Z" fill="#838A91"/>
</svg>
