<svg width="31" height="31" viewBox="0 0 31 31" fill="none" xmlns="http://www.w3.org/2000/svg">
<g clip-path="url(#clip0)">
<path fill-rule="evenodd" clip-rule="evenodd" d="M30.9122 28.0901C30.9122 29.3635 29.7978 30.3964 28.429 30.3964H3.21758C2.5624 30.3986 1.93304 30.157 1.46753 29.7246C1.00203 29.2923 0.738366 28.7045 0.734375 28.0901L0.734375 2.38153C0.734375 1.11014 1.8488 0.0772705 3.21758 0.0772705H28.429C29.7978 0.0772705 30.9122 1.11216 30.9122 2.38355V28.0922V28.0901ZM6.33884 12.2049C5.99582 12.2049 5.66686 12.3327 5.42431 12.5601C5.18176 12.7876 5.0455 13.096 5.0455 13.4177V19.0166C5.0455 19.1759 5.07895 19.3336 5.14395 19.4807C5.20894 19.6279 5.30421 19.7616 5.42431 19.8742C5.54441 19.9868 5.68698 20.0761 5.8439 20.1371C6.00081 20.198 6.16899 20.2294 6.33884 20.2294H23.1522C23.3221 20.2294 23.4902 20.198 23.6472 20.1371C23.8041 20.0761 23.9466 19.9868 24.0667 19.8742C24.1868 19.7616 24.2821 19.6279 24.3471 19.4807C24.4121 19.3336 24.4456 19.1759 24.4456 19.0166V13.4177C24.4456 13.096 24.3093 12.7876 24.0667 12.5601C23.8242 12.3327 23.4952 12.2049 23.1522 12.2049H6.33884ZM13.1439 6.1411C12.7109 6.1411 12.2956 6.30241 11.9894 6.58955C11.6831 6.87669 11.5111 7.26614 11.5111 7.67222C11.5111 8.07829 11.6831 8.46774 11.9894 8.75488C12.2956 9.04202 12.7109 9.20333 13.1439 9.20333H22.8138C23.2468 9.20333 23.6622 9.04202 23.9684 8.75488C24.2746 8.46774 24.4466 8.07829 24.4466 7.67222C24.4466 7.26614 24.2746 6.87669 23.9684 6.58955C23.6622 6.30241 23.2468 6.1411 22.8138 6.1411H13.1439ZM7.20106 9.7794C7.77275 9.7794 8.32103 9.56644 8.72527 9.18738C9.12952 8.80832 9.35662 8.2942 9.35662 7.75812C9.35662 7.22205 9.12952 6.70793 8.72527 6.32886C8.32103 5.9498 7.77275 5.73684 7.20106 5.73684C6.62937 5.73684 6.08109 5.9498 5.67685 6.32886C5.2726 6.70793 5.0455 7.22205 5.0455 7.75812C5.0455 8.2942 5.2726 8.80832 5.67685 9.18738C6.08109 9.56644 6.62937 9.7794 7.20106 9.7794V9.7794Z" fill="#2FC7F7"/>
</g>
<defs>
<clipPath id="clip0">
<rect x="0.734375" y="0.0772705" width="30.1779" height="30.3192" fill="white"/>
</clipPath>
</defs>
</svg>
