<svg width="56" height="57" viewBox="0 0 56 57" fill="none" xmlns="http://www.w3.org/2000/svg">
<path fill-rule="evenodd" clip-rule="evenodd" d="M0.532715 4.48535C0.532715 2.27621 2.32358 0.485352 4.53271 0.485352H51.4976C53.7067 0.485352 55.4976 2.27621 55.4976 4.48535V52.7704C55.4976 54.9795 53.7067 56.7704 51.4976 56.7704H4.53272C2.32358 56.7704 0.532715 54.9795 0.532715 52.7704V4.48535Z" fill="#DCE0E5"/>
<path d="M19.0944 41.3475C18.9601 41.3475 18.893 41.2817 18.7587 41.2158C18.6244 41.084 18.4901 40.8864 18.5573 40.6887L20.2359 31.2017L13.1855 24.4817C13.0512 24.3499 12.9841 24.1522 13.0512 23.9546C13.1184 23.7569 13.2527 23.6252 13.4541 23.6252L23.1904 22.2417L27.5549 13.6111C27.622 13.4134 27.8235 13.3475 28.0249 13.3475C28.2263 13.3475 28.4278 13.4793 28.4949 13.6111L32.8594 22.2417L42.5957 23.5593C42.7971 23.5593 42.9986 23.7569 42.9986 23.8887C43.0657 24.0864 42.9986 24.284 42.8643 24.4158L35.881 31.2017L37.5597 40.6887C37.6268 40.8864 37.4926 41.084 37.3583 41.2158C37.224 41.3475 36.9554 41.3475 36.8211 41.2817L28.1592 36.8017L19.363 41.2817C19.2959 41.2817 19.2287 41.3475 19.0944 41.3475ZM14.7299 24.4817L21.176 30.6746C21.3103 30.8064 21.3774 30.9381 21.3103 31.1358L19.7659 39.8322L27.8235 35.6817C27.9578 35.6158 28.1592 35.6158 28.2935 35.6817L36.2839 39.7664L34.7395 31.0699C34.7395 30.8722 34.7395 30.7405 34.8738 30.6087L41.3199 24.4158L32.3894 23.164C32.188 23.164 32.0537 23.0322 31.9865 22.9005L28.0249 14.9946L24.0633 22.9005C23.9961 23.0322 23.8618 23.164 23.6604 23.164L14.7299 24.4817Z" fill="#838A91"/>
</svg>
