<svg width="32" height="31" viewBox="0 0 32 31" fill="none" xmlns="http://www.w3.org/2000/svg">
<path d="M15.2598 19.6683H17.0363V21.4366H15.2598V19.6683Z" fill="#2FC7F7"/>
<path d="M17.9248 12.5365C17.9248 13.0387 17.7193 13.5021 17.3465 13.8417L15.26 15.7426V17.9002H17.0365V16.5213L18.5458 15.1463C19.28 14.4774 19.7013 13.5263 19.7013 12.5365C19.7013 10.5864 18.1075 9 16.1482 9C14.189 9 12.5952 10.5864 12.5952 12.5365H14.3717C14.3717 11.5614 15.1686 10.7683 16.1482 10.7683C17.1279 10.7683 17.9248 11.5614 17.9248 12.5365Z" fill="#2FC7F7"/>
<path d="M30.3079 15.2183C30.3079 22.995 23.9729 29.3072 16.1483 29.3072C8.32382 29.3072 1.98877 22.995 1.98877 15.2183C1.98877 7.44161 8.32382 1.12939 16.1483 1.12939C23.9729 1.12939 30.3079 7.44161 30.3079 15.2183Z" stroke="#53C1F6" stroke-width="2"/>
</svg>
