<svg width="11" height="10" viewBox="0 0 11 10" fill="none" xmlns="http://www.w3.org/2000/svg">
<path d="M9.55235 1.72794C9.04673 1.22246 8.38024 0.946746 7.66523 0.946746C6.95277 0.946746 6.28117 1.22501 5.77811 1.72794L5.51509 1.99089L5.24696 1.72283C4.74134 1.21736 4.06974 0.939087 3.35728 0.939087C2.64738 0.94164 1.97578 1.21736 1.47527 1.72028C0.969655 2.22576 0.691311 2.89462 0.693865 3.60689C0.693865 4.31915 0.974762 4.98802 1.47782 5.49094L5.3159 9.32798C5.36953 9.38159 5.44103 9.40967 5.50998 9.40967C5.57893 9.40967 5.65043 9.38414 5.70405 9.33053L9.54979 5.50115C10.0554 4.99568 10.3312 4.32681 10.3312 3.61455C10.3312 2.90228 10.0554 2.23086 9.55235 1.72794Z" fill="#2FC7F7"/>
<path d="M5.50742 8.74592L1.86597 5.10545C1.46506 4.70464 1.24545 4.17364 1.24545 3.60944C1.24545 3.04269 1.46506 2.51169 1.86342 2.11343C2.26178 1.71517 2.79293 1.49562 3.35728 1.49562C3.92418 1.49562 4.45534 1.71517 4.85625 2.11598L5.31846 2.57806C5.42571 2.68528 5.59935 2.68528 5.70916 2.57806L6.16626 2.12109C6.56717 1.71773 7.10088 1.49818 7.66523 1.49818C8.22958 1.49818 8.76073 1.71773 9.16164 2.11598C9.56256 2.51679 9.77962 3.0478 9.77962 3.61199M9.55235 1.72794C9.04673 1.22246 8.38024 0.946746 7.66523 0.946746C6.95277 0.946746 6.28117 1.22501 5.77811 1.72794L5.51509 1.99089L5.24696 1.72283C4.74134 1.21736 4.06974 0.939087 3.35728 0.939087C2.64738 0.94164 1.97578 1.21736 1.47527 1.72028C0.969655 2.22576 0.691311 2.89462 0.693865 3.60689C0.693865 4.31915 0.974763 4.98802 1.47782 5.49094L5.3159 9.32798C5.36953 9.38159 5.44103 9.40967 5.50998 9.40967C5.57893 9.40967 5.65043 9.38414 5.70405 9.33053L9.54979 5.50115C10.0554 4.99568 10.3312 4.32681 10.3312 3.61455C10.3312 2.90228 10.0554 2.23086 9.55235 1.72794Z" stroke="#53C1F6" stroke-width="0.24074"/>
</svg>
