<svg width="100" height="35" viewBox="0 0 100 35" fill="none" xmlns="http://www.w3.org/2000/svg">
<rect width="100" height="35" fill="white"/>
<g clip-path="url(#clip0)">
<rect x="-166" y="-937" width="1440" height="983" fill="#F4F8F9"/>
<g filter="url(#filter0_di)">
<path fill-rule="evenodd" clip-rule="evenodd" d="M112.491 17.5C112.491 14.2474 112.491 12.6211 112.76 11.2687C113.865 5.71507 118.206 1.3737 123.76 0.269006C125.112 0 126.739 0 129.991 0H194.991C198.244 0 199.87 0 201.222 0.269006C206.776 1.3737 211.118 5.71507 212.222 11.2687C212.491 12.6211 212.491 14.2474 212.491 17.5C212.491 20.7526 212.491 22.3789 212.222 23.7313C211.118 29.2849 206.776 33.6263 201.222 34.731C199.87 35 198.244 35 194.991 35H129.991C126.739 35 125.112 35 123.76 34.731C118.206 33.6263 113.865 29.2849 112.76 23.7313C112.491 22.3789 112.491 20.7526 112.491 17.5Z" fill="url(#paint0_linear)"/>
<path d="M113.641 17.5C113.641 14.1923 113.647 12.7064 113.888 11.4931C114.902 6.39562 118.887 2.41086 123.984 1.39691C125.198 1.15557 126.684 1.15 129.991 1.15H194.991C198.299 1.15 199.785 1.15557 200.998 1.39691L201.222 0.269876L200.998 1.39691C206.096 2.41086 210.08 6.39562 211.094 11.4931C211.336 12.7064 211.341 14.1923 211.341 17.5C211.341 20.8077 211.336 22.2936 211.094 23.5069C210.08 28.6044 206.096 32.5891 200.998 33.6031C199.785 33.8444 198.299 33.85 194.991 33.85H129.991C126.684 33.85 125.198 33.8444 123.984 33.6031C118.887 32.5891 114.902 28.6044 113.888 23.5069C113.647 22.2936 113.641 20.8077 113.641 17.5Z" stroke="url(#paint1_linear)" stroke-width="2.3"/>
</g>
<path fill-rule="evenodd" clip-rule="evenodd" d="M0 17.5C0 14.2474 0 12.6211 0.269006 11.2687C1.3737 5.71507 5.71507 1.3737 11.2687 0.269006C12.6211 0 14.2474 0 17.5 0H82.5C85.7526 0 87.3789 0 88.7313 0.269006C94.2849 1.3737 98.6263 5.71507 99.731 11.2687C100 12.6211 100 14.2474 100 17.5V17.5C100 20.7526 100 22.3789 99.731 23.7313C98.6263 29.2849 94.2849 33.6263 88.7313 34.731C87.3789 35 85.7526 35 82.5 35H17.5C14.2474 35 12.6211 35 11.2687 34.731C5.71507 33.6263 1.3737 29.2849 0.269006 23.7313C0 22.3789 0 20.7526 0 17.5V17.5Z" fill="url(#paint2_linear)"/>
<path fill-rule="evenodd" clip-rule="evenodd" d="M9.17139 12.5331H15.9606L15.424 14.2318H11.3234V16.3398H12.0322C13.1461 16.3398 14.1389 16.478 14.9031 16.8729C15.8098 17.3337 16.3649 18.1559 16.3649 19.4498C16.3649 21.257 15.2528 22.6141 12.0867 22.6141H9.18156V12.5331H9.17231H9.17139ZM12.1191 20.9028C13.5921 20.9028 14.2027 20.4437 14.2027 19.4824C14.2027 18.9258 13.9844 18.5517 13.6244 18.3385C13.2312 18.1126 12.6641 18.0493 12.0201 18.0493H11.3105V20.9136H12.1182V20.9046L12.1191 20.9028ZM17.5104 15.3766H19.5625V18.2734C19.5625 18.8725 19.5514 19.4498 19.4977 19.8664H19.5403C19.7161 19.5772 20.0769 18.9691 20.5025 18.3701L22.6194 15.3883H24.6919V22.6258H22.6194V19.7281C22.6194 19.1291 22.6518 18.5517 22.6953 18.1352H22.6518C22.4778 18.4243 22.1059 19.0333 21.6914 19.6314L19.5727 22.6132H17.5002V15.3757H17.5113L17.5104 15.3766ZM27.7488 17.087H25.5329V15.3766H32.5294L31.9835 17.087H29.8648V22.6141H27.7488V17.087ZM33.1733 15.6657C33.9921 15.3874 34.996 15.1959 36.109 15.1959C38.8699 15.1959 40.267 16.7139 40.267 18.9908C40.267 21.1594 38.7607 22.7749 36.3598 22.7749C35.9989 22.7749 35.64 22.7316 35.2911 22.6358V26.25H33.1724V15.6648L33.1733 15.6657ZM36.1969 21.0744C37.4626 21.0744 38.0964 20.2612 38.0964 18.9899C38.0964 17.5804 37.31 16.8937 36.011 16.8937C35.7491 16.8937 35.5206 16.9054 35.2911 16.9912V20.9262C35.5743 21.0112 35.837 21.0753 36.1979 21.0753L36.1969 21.0744ZM41.2616 15.3766H43.3137V18.2734C43.3137 18.8725 43.3026 19.4498 43.2489 19.8664H43.2915C43.4673 19.5772 43.8263 18.9691 44.2519 18.3701L46.3706 15.3883H48.4431V22.6258H46.3706V19.7281C46.3706 19.1291 46.4021 18.5517 46.4465 18.1352H46.4021C46.2281 18.4243 45.8562 19.0333 45.4417 19.6314L43.3229 22.6132H41.2505V15.3757H41.2616V15.3766ZM49.8078 15.3766H51.9265V18.1469H52.7111C53.6067 18.1469 53.5734 16.6813 54.2285 15.8157C54.5125 15.4308 54.9501 15.1832 55.6255 15.1832C55.8439 15.1832 56.2362 15.2167 56.4767 15.2916V17.0554C56.3565 17.0129 56.1936 16.9804 56.04 16.9804C55.8013 16.9804 55.6487 17.0545 55.5284 17.2045C55.1583 17.6635 55.0917 18.5942 54.5347 18.9357V18.9682C54.8955 19.1065 55.1574 19.3631 55.3859 19.823L56.7182 22.6132H54.4255L53.5531 20.3471C53.368 19.898 53.1811 19.7055 52.9739 19.7055H51.9376V22.6132H49.8189V15.3757H49.8096L49.8078 15.3766ZM57.0568 19.0324C57.0568 16.7346 58.8795 15.195 61.0501 15.195C62.0549 15.195 62.7099 15.4733 63.1022 15.719V17.4512C62.5674 17.0554 62.0012 16.8413 61.2795 16.8413C59.9805 16.8413 59.207 17.8035 59.207 19.0333C59.207 20.3913 59.9916 21.1296 61.1815 21.1296C61.8365 21.1296 62.338 20.947 62.895 20.6371L63.4963 22.0485C62.8839 22.4759 61.9235 22.7858 60.8965 22.7858C58.4308 22.765 57.0568 21.1612 57.0568 19.0342V19.0324Z" fill="#2FC7F7"/>
<path fill-rule="evenodd" clip-rule="evenodd" d="M87.0617 11.25C84.9429 11.25 83.2192 12.9288 83.2192 15.0025C83.2192 17.0762 84.9327 18.755 87.0607 18.755C89.1887 18.755 90.9022 17.087 90.9022 15.0142C90.9022 12.9288 89.1887 11.25 87.0598 11.25H87.0617ZM87.0617 17.9318C85.4129 17.9318 84.0825 16.6271 84.0825 15.0133C84.0825 13.3987 85.4129 12.0948 87.0617 12.0948C88.7085 12.0948 90.0409 13.3987 90.0409 15.0133C90.052 16.6271 88.7085 17.9318 87.0617 17.9318Z" fill="#0066A1"/>
<path fill-rule="evenodd" clip-rule="evenodd" d="M87.4967 14.5869V13.3336H86.6362V15.4281H88.7753V14.5869" fill="#0066A1"/>
<path fill-rule="evenodd" clip-rule="evenodd" d="M70.5467 14.6383C70.5467 13.6769 69.7279 13.3345 68.8656 13.3345C67.697 13.3345 66.7468 13.7085 65.8642 14.0934L65.2517 12.3189C66.2444 11.8806 67.6211 11.3882 69.2477 11.3882C71.8013 11.3882 73.0346 12.6396 73.0346 14.4034C73.0346 17.4935 68.6898 18.3591 67.9588 20.7102H73.1863V22.6773H64.8594C65.3377 17.171 70.5467 16.852 70.5467 14.6383Z" fill="#0066A1"/>
<path fill-rule="evenodd" clip-rule="evenodd" d="M72.7725 18.5408L78.5143 11.4208H80.2167V18.1559H81.9191V20.0263H80.2167V22.6882H77.9037V20.0263H72.7725V18.5408ZM76.8545 18.1559H77.9028V16.9479C77.9028 16.0822 77.9694 15.0775 78.0138 14.8633L75.4241 18.2101C75.6203 18.1875 76.4604 18.1559 76.8536 18.1559H76.8545Z" fill="#0066A1"/>
</g>
<defs>
<filter id="filter0_di" x="93.4912" y="-18" width="140" height="75" filterUnits="userSpaceOnUse" color-interpolation-filters="sRGB">
<feFlood flood-opacity="0" result="BackgroundImageFix"/>
<feColorMatrix in="SourceAlpha" type="matrix" values="0 0 0 0 0 0 0 0 0 0 0 0 0 0 0 0 0 0 127 0"/>
<feOffset dx="1" dy="2"/>
<feGaussianBlur stdDeviation="10"/>
<feColorMatrix type="matrix" values="0 0 0 0 0.0705882 0 0 0 0 0.239843 0 0 0 0 0.396078 0 0 0 0.05 0"/>
<feBlend mode="normal" in2="BackgroundImageFix" result="effect1_dropShadow"/>
<feBlend mode="normal" in="SourceGraphic" in2="effect1_dropShadow" result="shape"/>
<feColorMatrix in="SourceAlpha" type="matrix" values="0 0 0 0 0 0 0 0 0 0 0 0 0 0 0 0 0 0 127 0" result="hardAlpha"/>
<feOffset dx="-18.4" dy="-13.8"/>
<feGaussianBlur stdDeviation="92"/>
<feComposite in2="hardAlpha" operator="arithmetic" k2="-1" k3="1"/>
<feColorMatrix type="matrix" values="0 0 0 0 1 0 0 0 0 1 0 0 0 0 1 0 0 0 0.18 0"/>
<feBlend mode="normal" in2="shape" result="effect2_innerShadow"/>
</filter>
<linearGradient id="paint0_linear" x1="86.4743" y1="1.01642" x2="128.907" y2="98.0348" gradientUnits="userSpaceOnUse">
<stop offset="0.251529" stop-color="white"/>
<stop offset="1" stop-color="#F7FAFF"/>
</linearGradient>
<linearGradient id="paint1_linear" x1="82.7412" y1="-5.39583" x2="87.9468" y2="51.4065" gradientUnits="userSpaceOnUse">
<stop offset="0.263331" stop-color="white"/>
<stop offset="0.507086" stop-color="#DBE6F2" stop-opacity="0"/>
<stop offset="1" stop-color="#D3DDE6"/>
</linearGradient>
<linearGradient id="paint2_linear" x1="-26.0169" y1="1.01642" x2="16.4159" y2="98.0348" gradientUnits="userSpaceOnUse">
<stop offset="0.251529" stop-color="white"/>
<stop offset="1" stop-color="#F1F8FF"/>
</linearGradient>
<clipPath id="clip0">
<rect x="-166" y="-937" width="1440" height="983" fill="white"/>
</clipPath>
</defs>
</svg>
