<svg width="32" height="32" viewBox="0 0 32 32" fill="none" xmlns="http://www.w3.org/2000/svg">
<path fill-rule="evenodd" clip-rule="evenodd" d="M9.55421 12.5676C9.58674 12.5879 9.62325 12.6095 9.66109 12.6331C9.96913 12.8218 10.1915 12.958 10.2765 13.2456C10.6085 14.384 12.8557 18.6148 15.895 18.6148C18.9316 18.6148 21.1808 14.3833 21.5127 13.2475C21.5957 12.96 21.8195 12.8224 22.1282 12.6325C22.166 12.6095 22.2025 12.5879 22.2344 12.5676C23.0483 11.1049 22.9202 10.4519 22.8246 10.2357C22.7084 9.97305 22.4641 9.90886 22.4369 9.90231C22.1255 9.82894 21.8925 9.54139 21.9097 9.22566C21.9104 9.20929 21.9954 7.53438 21.5831 5.99834C21.5433 5.85555 20.5003 2.36163 15.895 2.36163C11.2537 2.36163 10.2154 5.96494 10.2055 6.00162C9.79188 7.54224 9.87885 9.20863 9.87951 9.22501C9.89876 9.55449 9.66574 9.84597 9.33712 9.90558C9.3245 9.90886 9.08019 9.97305 8.96401 10.2357C8.86908 10.4519 8.74029 11.1049 9.55421 12.5676ZM15.8948 19.9248C12.2322 19.9248 9.67555 15.582 9.06478 13.8095C9.03159 13.7885 8.99507 13.7669 8.95989 13.7453C8.72089 13.5992 8.56288 13.5023 8.45932 13.3195C7.57967 11.7848 7.34731 10.5547 7.76888 9.66578C7.97004 9.24001 8.27542 8.98259 8.54363 8.82931C8.54297 8.16511 8.59209 6.89567 8.92271 5.66291C8.93599 5.61443 10.2478 1.05151 15.8948 1.05151C21.5418 1.05151 22.853 5.61443 22.8663 5.66029C23.1975 6.89501 23.2467 8.16511 23.246 8.82931C23.5135 8.98259 23.8189 9.24001 24.0201 9.66512C24.4417 10.5547 24.2086 11.7848 23.329 13.3215C23.2261 13.5023 23.0681 13.5986 22.8291 13.7446C22.7939 13.7669 22.758 13.7885 22.7242 13.8095C22.1108 15.5853 19.5528 19.9248 15.8948 19.9248Z" fill="#2FC7F7"/>
<path fill-rule="evenodd" clip-rule="evenodd" d="M20.6834 20.1312C20.5805 20.1312 20.4763 20.1076 20.378 20.0578C19.0317 19.368 18.6307 18.6953 18.5643 18.5676C18.397 18.246 18.5251 17.851 18.8511 17.6859C19.1744 17.5228 19.5648 17.644 19.7361 17.9519C19.7567 17.984 20.0454 18.4117 20.9901 18.8945C21.3155 19.0615 21.4423 19.4565 21.2736 19.7774C21.1555 20.0028 20.9231 20.1312 20.6834 20.1312Z" fill="#2FC7F7"/>
<path fill-rule="evenodd" clip-rule="evenodd" d="M16.2409 31.2294C8.60356 31.2294 1.60822 29.9757 1.5332 29.9619C1.20657 29.903 0.974211 29.6141 0.98948 29.2866C1.30549 22.7547 5.42953 20.726 8.50464 19.769C10.9006 19.023 12.1547 17.8151 12.1666 17.8026C12.4275 17.5485 12.8478 17.5498 13.1054 17.8066C13.3636 18.064 13.3623 18.4786 13.1014 18.7334C13.0416 18.7917 11.6037 20.1778 8.90364 21.0182C5.9082 21.9509 2.81251 23.6095 2.35509 28.7717C4.34342 29.0934 11.1223 30.0831 18.0115 29.8951C18.3839 29.8859 18.684 30.1702 18.6939 30.5318C18.7039 30.8934 18.4151 31.1947 18.0493 31.2045C17.4438 31.2215 16.8404 31.2294 16.2409 31.2294Z" fill="#2FC7F7"/>
<path fill-rule="evenodd" clip-rule="evenodd" d="M9.55421 12.5676C9.58674 12.5879 9.62325 12.6095 9.66109 12.6331C9.96913 12.8218 10.1915 12.958 10.2765 13.2456C10.6085 14.384 12.8557 18.6148 15.895 18.6148C18.9316 18.6148 21.1808 14.3833 21.5127 13.2475C21.5957 12.96 21.8195 12.8224 22.1282 12.6325C22.166 12.6095 22.2025 12.5879 22.2344 12.5676C23.0483 11.1049 22.9202 10.4519 22.8246 10.2357C22.7084 9.97305 22.4641 9.90886 22.4369 9.90231C22.1255 9.82894 21.8925 9.54139 21.9097 9.22566C21.9104 9.20929 21.9954 7.53438 21.5831 5.99834C21.5433 5.85555 20.5003 2.36163 15.895 2.36163C11.2537 2.36163 10.2154 5.96494 10.2055 6.00162C9.79188 7.54224 9.87885 9.20863 9.87951 9.22501C9.89876 9.55449 9.66574 9.84597 9.33712 9.90558C9.3245 9.90886 9.08019 9.97305 8.96401 10.2357C8.86908 10.4519 8.74029 11.1049 9.55421 12.5676ZM15.8948 19.9248C12.2322 19.9248 9.67555 15.582 9.06478 13.8095C9.03159 13.7885 8.99507 13.7669 8.95989 13.7453C8.72089 13.5992 8.56288 13.5023 8.45932 13.3195C7.57967 11.7848 7.34731 10.5547 7.76888 9.66578C7.97004 9.24001 8.27542 8.98259 8.54363 8.82931C8.54297 8.16511 8.59209 6.89567 8.92271 5.66291C8.93599 5.61443 10.2478 1.05151 15.8948 1.05151C21.5418 1.05151 22.853 5.61443 22.8663 5.66029C23.1975 6.89501 23.2467 8.16511 23.246 8.82931C23.5135 8.98259 23.8189 9.24001 24.0201 9.66512C24.4417 10.5547 24.2086 11.7848 23.329 13.3215C23.2261 13.5023 23.0681 13.5986 22.8291 13.7446C22.7939 13.7669 22.758 13.7885 22.7242 13.8095C22.1108 15.5853 19.5528 19.9248 15.8948 19.9248Z" stroke="#2FC7F7" stroke-width="0.9"/>
<path fill-rule="evenodd" clip-rule="evenodd" d="M20.6834 20.1312C20.5805 20.1312 20.4763 20.1076 20.378 20.0578C19.0317 19.368 18.6307 18.6953 18.5643 18.5676C18.397 18.246 18.5251 17.851 18.8511 17.6859C19.1744 17.5228 19.5648 17.644 19.7361 17.9519C19.7567 17.984 20.0454 18.4117 20.9901 18.8945C21.3155 19.0615 21.4423 19.4565 21.2736 19.7774C21.1555 20.0028 20.9231 20.1312 20.6834 20.1312Z" stroke="#2FC7F7" stroke-width="0.9"/>
<path fill-rule="evenodd" clip-rule="evenodd" d="M16.2409 31.2294C8.60356 31.2294 1.60822 29.9757 1.5332 29.9619C1.20657 29.903 0.974211 29.6141 0.98948 29.2866C1.30549 22.7547 5.42953 20.726 8.50464 19.769C10.9006 19.023 12.1547 17.8151 12.1666 17.8026C12.4275 17.5485 12.8478 17.5498 13.1054 17.8066C13.3636 18.064 13.3623 18.4786 13.1014 18.7334C13.0416 18.7917 11.6037 20.1778 8.90364 21.0182C5.9082 21.9509 2.81251 23.6095 2.35509 28.7717C4.34342 29.0934 11.1223 30.0831 18.0115 29.8951C18.3839 29.8859 18.684 30.1702 18.6939 30.5318C18.7039 30.8934 18.4151 31.1947 18.0493 31.2045C17.4438 31.2215 16.8404 31.2294 16.2409 31.2294Z" stroke="#2FC7F7" stroke-width="0.9"/>
<path fill-rule="evenodd" clip-rule="evenodd" d="M22.013 22.6897V29.895H29.9803L29.9796 22.6897H22.013ZM29.9799 31.205H22.0133C21.2811 31.205 20.6855 30.6174 20.6855 29.8949V22.6896C20.6855 21.9671 21.2811 21.3795 22.0133 21.3795H29.9799C30.7122 21.3795 31.3077 21.9671 31.3077 22.6896V29.8949C31.3077 30.6174 30.7122 31.205 29.9799 31.205Z" fill="#2FC7F7"/>
<path fill-rule="evenodd" clip-rule="evenodd" d="M29.9798 25.9648H22.0132C21.646 25.9648 21.3493 25.6713 21.3493 25.3097C21.3493 24.9482 21.646 24.6547 22.0132 24.6547H29.9798C30.3469 24.6547 30.6436 24.9482 30.6436 25.3097C30.6436 25.6713 30.3469 25.9648 29.9798 25.9648Z" fill="#2FC7F7"/>
<path fill-rule="evenodd" clip-rule="evenodd" d="M24.0053 23.9997C23.6382 23.9997 23.3414 23.7063 23.3414 23.3447V20.7246C23.3414 20.363 23.6382 20.0696 24.0053 20.0696C24.3724 20.0696 24.6692 20.363 24.6692 20.7246V23.3447C24.6692 23.7063 24.3724 23.9997 24.0053 23.9997Z" fill="#2FC7F7"/>
<path fill-rule="evenodd" clip-rule="evenodd" d="M27.9877 23.9997C27.6205 23.9997 27.3238 23.7063 27.3238 23.3447V20.7246C27.3238 20.363 27.6205 20.0696 27.9877 20.0696C28.3548 20.0696 28.6515 20.363 28.6515 20.7246V23.3447C28.6515 23.7063 28.3548 23.9997 27.9877 23.9997Z" fill="#2FC7F7"/>
<path fill-rule="evenodd" clip-rule="evenodd" d="M22.013 22.6897V29.895H29.9803L29.9796 22.6897H22.013ZM29.9799 31.205H22.0133C21.2811 31.205 20.6855 30.6174 20.6855 29.8949V22.6896C20.6855 21.9671 21.2811 21.3795 22.0133 21.3795H29.9799C30.7122 21.3795 31.3077 21.9671 31.3077 22.6896V29.8949C31.3077 30.6174 30.7122 31.205 29.9799 31.205Z" stroke="#2FC7F7" stroke-width="0.9"/>
<path fill-rule="evenodd" clip-rule="evenodd" d="M29.9798 25.9648H22.0132C21.646 25.9648 21.3493 25.6713 21.3493 25.3097C21.3493 24.9482 21.646 24.6547 22.0132 24.6547H29.9798C30.3469 24.6547 30.6436 24.9482 30.6436 25.3097C30.6436 25.6713 30.3469 25.9648 29.9798 25.9648Z" stroke="#2FC7F7" stroke-width="0.9"/>
<path fill-rule="evenodd" clip-rule="evenodd" d="M24.0053 23.9997C23.6382 23.9997 23.3414 23.7063 23.3414 23.3447V20.7246C23.3414 20.363 23.6382 20.0696 24.0053 20.0696C24.3724 20.0696 24.6692 20.363 24.6692 20.7246V23.3447C24.6692 23.7063 24.3724 23.9997 24.0053 23.9997Z" stroke="#2FC7F7" stroke-width="0.9"/>
<path fill-rule="evenodd" clip-rule="evenodd" d="M27.9877 23.9997C27.6205 23.9997 27.3238 23.7063 27.3238 23.3447V20.7246C27.3238 20.363 27.6205 20.0696 27.9877 20.0696C28.3548 20.0696 28.6515 20.363 28.6515 20.7246V23.3447C28.6515 23.7063 28.3548 23.9997 27.9877 23.9997Z" stroke="#2FC7F7" stroke-width="0.9"/>
</svg>
