<svg width="56" height="57" viewBox="0 0 56 57" fill="none" xmlns="http://www.w3.org/2000/svg">
<g clip-path="url(#clip0)">
<path fill-rule="evenodd" clip-rule="evenodd" d="M0.532227 4.48535C0.532227 2.27621 2.32309 0.485352 4.53223 0.485352H51.4971C53.7062 0.485352 55.4971 2.27621 55.4971 4.48535V52.7704C55.4971 54.9795 53.7062 56.7704 51.4971 56.7704H4.53223C2.32309 56.7704 0.532227 54.9795 0.532227 52.7704V4.48535Z" fill="#DCE0E5"/>
<path d="M7.09394 29.3475C6.95964 29.3475 6.8925 29.2817 6.7582 29.2158C6.62391 29.084 6.48962 28.8864 6.55676 28.6887L8.23543 19.2017L1.18505 12.4817C1.05076 12.3499 0.983609 12.1522 1.05076 11.9546C1.1179 11.7569 1.2522 11.6252 1.45363 11.6252L11.1899 10.2417L15.5544 1.61106C15.6215 1.41342 15.823 1.34753 16.0244 1.34753C16.2259 1.34753 16.4273 1.4793 16.4944 1.61106L20.859 10.2417L30.5952 11.5593C30.7966 11.5593 30.9981 11.7569 30.9981 11.8887C31.0652 12.0864 30.9981 12.284 30.8638 12.4158L23.8805 19.2017L25.5592 28.6887C25.6264 28.8864 25.4921 29.084 25.3578 29.2158C25.2235 29.3475 24.9549 29.3475 24.8206 29.2817L16.1587 24.8017L7.36252 29.2817C7.29537 29.2817 7.22823 29.3475 7.09394 29.3475ZM2.72942 12.4817L9.17548 18.6746C9.30977 18.8064 9.37692 18.9381 9.30977 19.1358L7.7654 27.8322L15.823 23.6817C15.9573 23.6158 16.1587 23.6158 16.293 23.6817L24.2834 27.7664L22.7391 19.0699C22.7391 18.8722 22.7391 18.7405 22.8734 18.6087L29.3194 12.4158L20.3889 11.164C20.1875 11.164 20.0532 11.0322 19.9861 10.9005L16.0244 2.99459L12.0628 10.9005C11.9956 11.0322 11.8613 11.164 11.6599 11.164L2.72942 12.4817Z" fill="#838A91" stroke="#838A91" stroke-width="0.881917"/>
</g>
<defs>
<clipPath id="clip0">
<rect x="0.331055" y="0.855347" width="56.3192" height="57.1779" fill="white"/>
</clipPath>
</defs>
</svg>
