<svg width="32" height="31" viewBox="0 0 32 31" fill="none" xmlns="http://www.w3.org/2000/svg">
<g clip-path="url(#clip0)">
<path fill-rule="evenodd" clip-rule="evenodd" d="M31.0535 27.9596C31.0535 29.2271 29.9339 30.2551 28.5587 30.2551H3.22921C2.57095 30.2573 1.93865 30.0168 1.47096 29.5865C1.00328 29.1562 0.738385 28.5711 0.734375 27.9596L0.734375 2.37079C0.734375 1.10533 1.85402 0.0772705 3.22921 0.0772705H28.5587C29.9339 0.0772705 31.0535 1.10734 31.0535 2.3728V27.9616V27.9596ZM6.36507 12.1484C6.02045 12.1484 5.68995 12.2756 5.44627 12.502C5.20258 12.7284 5.06568 13.0354 5.06568 13.3555V18.9284C5.06568 19.0869 5.09929 19.2439 5.16459 19.3903C5.22989 19.5368 5.32561 19.6698 5.44627 19.7819C5.56693 19.894 5.71017 19.9829 5.86782 20.0436C6.02547 20.1043 6.19444 20.1355 6.36507 20.1355H23.2572C23.4278 20.1355 23.5968 20.1043 23.7544 20.0436C23.9121 19.9829 24.0553 19.894 24.176 19.7819C24.2966 19.6698 24.3924 19.5368 24.4577 19.3903C24.523 19.2439 24.5566 19.0869 24.5566 18.9284V13.3555C24.5566 13.0354 24.4197 12.7284 24.176 12.502C23.9323 12.2756 23.6018 12.1484 23.2572 12.1484H6.36507ZM13.202 6.11284C12.767 6.11284 12.3497 6.27341 12.042 6.55921C11.7344 6.84501 11.5616 7.23264 11.5616 7.63683C11.5616 8.04101 11.7344 8.42864 12.042 8.71444C12.3497 9.00025 12.767 9.16081 13.202 9.16081H22.9172C23.3522 9.16081 23.7695 9.00025 24.0772 8.71444C24.3848 8.42864 24.5576 8.04101 24.5576 7.63683C24.5576 7.23264 24.3848 6.84501 24.0772 6.55921C23.7695 6.27341 23.3522 6.11284 22.9172 6.11284H13.202ZM7.23134 9.73419C7.8057 9.73419 8.35654 9.52222 8.76268 9.14493C9.16882 8.76763 9.39699 8.25591 9.39699 7.72233C9.39699 7.18875 9.16882 6.67703 8.76268 6.29973C8.35654 5.92243 7.8057 5.71047 7.23134 5.71047C6.65697 5.71047 6.10613 5.92243 5.69999 6.29973C5.29385 6.67703 5.06568 7.18875 5.06568 7.72233C5.06568 8.25591 5.29385 8.76763 5.69999 9.14493C6.10613 9.52222 6.65697 9.73419 7.23134 9.73419Z" fill="#2FC7F7"/>
</g>
<defs>
<clipPath id="clip0">
<rect x="0.734375" y="0.0772705" width="30.3191" height="30.1779" fill="white"/>
</clipPath>
</defs>
</svg>
