<svg width="9" height="16" viewBox="0 0 9 16" fill="none" xmlns="http://www.w3.org/2000/svg">
<path fill-rule="evenodd" clip-rule="evenodd" d="M8.99044 11.3495C8.97369 13.4108 7.19069 15.0776 4.99219 15.0776C2.79344 15.0776 1.01069 13.4108 0.993688 11.3495H0.992188V4.77507V3.83478V2.89567C0.992188 1.339 2.33519 0.0776367 3.99219 0.0776367C5.64894 0.0776367 6.99219 1.339 6.99219 2.89567V3.83478V4.77507V8.06934V9.2529V11.3495H6.98894C6.97194 12.3735 6.08594 13.1987 4.99219 13.1987C3.89819 13.1987 3.01244 12.3735 2.99544 11.3495H2.99219V10.4104V9.2529V8.06934V6.65306V5.54989V4.48445V3.83478H3.99219V4.7453V5.71348V7.68568V8.70049V9.70265V10.4104V11.3495C3.99219 11.8682 4.43994 12.2887 4.99219 12.2887C5.54444 12.2887 5.99219 11.8682 5.99219 11.3495V9.70265V8.70049V7.68568V6.65306V4.99233V4.77507V3.83478V2.89567H5.98994C5.99019 2.88606 5.99219 2.87646 5.99219 2.86661C5.99219 1.8286 5.09669 0.987686 3.99219 0.987686C2.88744 0.987686 1.99219 1.8286 1.99219 2.86661C1.99219 2.87646 1.99419 2.88606 1.99444 2.89567H1.99219V3.83478V4.77507V4.99233V6.65306V8.84041V11.3495C1.99219 12.9062 3.33519 14.1676 4.99219 14.1676C6.64894 14.1676 7.99219 12.9062 7.99219 11.3495V8.84041V2.89567V1.95656H8.99219V2.89567V11.3495H8.99044Z" fill="#2FC7F7"/>
</svg>
