<svg width="30" height="31" viewBox="0 0 30 31" fill="none" xmlns="http://www.w3.org/2000/svg">
<path fill-rule="evenodd" clip-rule="evenodd" d="M15 30.0585C23.2843 30.0585 30 23.3427 30 15.0585C30 6.7742 23.2843 0.0584717 15 0.0584717C6.71573 0.0584717 0 6.7742 0 15.0585C0 23.3427 6.71573 30.0585 15 30.0585Z" fill="#2FC7F7"/>
<path d="M22.5412 14.1931L11.2457 9.53711C10.7698 9.34094 10.2322 9.42724 9.8427 9.76221C9.45319 10.0972 9.29027 10.6134 9.41759 11.1094L10.423 15.026H15.3456C15.5721 15.026 15.7558 15.2084 15.7558 15.4335C15.7558 15.6585 15.5721 15.841 15.3456 15.841H10.423L9.41759 19.7576C9.29027 20.2535 9.45316 20.7697 9.8427 21.1047C10.233 21.4404 10.7707 21.5256 11.2457 21.3298L22.5413 16.6739C23.0555 16.4619 23.375 15.9866 23.375 15.4335C23.375 14.8804 23.0555 14.405 22.5412 14.1931Z" fill="white"/>
</svg>
