<svg width="32" height="31" viewBox="0 0 32 31" fill="none" xmlns="http://www.w3.org/2000/svg">
<path d="M17.0997 30.9144H15.1969C13.6579 30.9144 12.4058 29.6681 12.4058 28.1363V27.4956C11.7515 27.2875 11.1158 27.0249 10.5051 26.7103L10.0489 27.1644C8.94393 28.2655 7.17399 28.2332 6.10116 27.164L4.75628 25.8254C3.68155 24.7569 3.65064 22.9958 4.75663 21.8961L5.21249 21.4424C4.89645 20.8345 4.63263 20.2019 4.42354 19.5505H3.77985C2.24091 19.5505 0.98877 18.3043 0.98877 16.7725V14.8785C0.98877 13.3466 2.24091 12.1004 3.77991 12.1004H4.4236C4.63269 11.4491 4.89651 10.8164 5.21255 10.2086L4.75634 9.75455C3.65099 8.65553 3.68149 6.89426 4.75669 5.82524L6.10169 4.48658C7.17701 3.41479 8.94654 3.38803 10.0493 4.48693L10.5051 4.9406C11.1158 4.62609 11.7515 4.36345 12.4058 4.15533V3.51464C12.4058 1.98282 13.6579 0.736572 15.197 0.736572H17.0998C18.6388 0.736572 19.8909 1.98282 19.8909 3.51464V4.15539C20.5452 4.36345 21.1808 4.62609 21.7916 4.94066L22.2478 4.48658C23.3527 3.38544 25.1226 3.41774 26.1955 4.48699L27.5403 5.82554C28.6151 6.89408 28.646 8.65518 27.54 9.75484L27.0841 10.2086C27.4002 10.8164 27.664 11.449 27.8731 12.1004H28.5168C30.0558 12.1004 31.3079 13.3466 31.3079 14.8785V16.7725C31.3079 18.3043 30.0558 19.5505 28.5168 19.5505H27.8731C27.664 20.2018 27.4002 20.8345 27.0841 21.4424L27.5403 21.8965C28.6457 22.9955 28.6152 24.7567 27.54 25.8258L26.195 27.1644C25.1197 28.2362 23.3501 28.263 22.2473 27.1641L21.7916 26.7104C21.1808 27.0249 20.5452 27.2875 19.8909 27.4957V28.1364C19.8909 29.6681 18.6388 30.9144 17.0997 30.9144ZM10.802 24.8535C11.6505 25.3529 12.5636 25.7302 13.516 25.9748C13.9083 26.0755 14.1823 26.4277 14.1823 26.8309V28.1363C14.1823 28.6931 14.6375 29.1461 15.197 29.1461H17.0998C17.6592 29.1461 18.1144 28.6931 18.1144 28.1363V26.8309C18.1144 26.4277 18.3885 26.0755 18.7807 25.9748C19.7332 25.7302 20.6463 25.3529 21.4947 24.8535C21.8438 24.648 22.2882 24.7039 22.575 24.9893L23.504 25.914C23.9045 26.3132 24.5478 26.3039 24.9385 25.9145L26.2843 24.575C26.6741 24.1875 26.6871 23.5472 26.2847 23.1471L25.3552 22.222C25.0685 21.9366 25.0124 21.4942 25.2187 21.1468C25.7205 20.3025 26.0995 19.3936 26.3453 18.4455C26.4466 18.0551 26.8003 17.7824 27.2054 17.7824H28.5168C29.0763 17.7824 29.5315 17.3293 29.5315 16.7725V14.8785C29.5315 14.3217 29.0763 13.8687 28.5168 13.8687H27.2054C26.8003 13.8687 26.4466 13.5959 26.3453 13.2055C26.0995 12.2575 25.7204 11.3486 25.2187 10.5042C25.0124 10.1568 25.0685 9.71441 25.3552 9.42902L26.2843 8.50429C26.6859 8.10502 26.6754 7.46492 26.2847 7.07644L24.9389 5.73701C24.5489 5.34823 23.9055 5.33686 23.5044 5.73666L22.5751 6.66174C22.2883 6.94719 21.8437 7.00306 21.4948 6.79759C20.6464 6.29819 19.7332 5.92091 18.7808 5.67624C18.3885 5.57551 18.1145 5.2234 18.1145 4.82018V3.51464C18.1145 2.95782 17.6593 2.5048 17.0998 2.5048H15.197C14.6376 2.5048 14.1824 2.95782 14.1824 3.51464V4.82006C14.1824 5.22328 13.9083 5.57539 13.5161 5.67612C12.5636 5.92079 11.6505 6.29807 10.8021 6.79748C10.453 7.00289 10.0085 6.94701 9.72181 6.66162L8.79281 5.73689C8.39227 5.33774 7.74899 5.347 7.35834 5.73648L6.01251 7.07597C5.62274 7.46345 5.60972 8.10373 6.01216 8.50382L6.94157 9.4289C7.2283 9.71429 7.28443 10.1567 7.07806 10.5041C6.57632 11.3485 6.19733 12.2574 5.95152 13.2054C5.85026 13.5958 5.49649 13.8686 5.09145 13.8686H3.77991C3.22048 13.8686 2.76528 14.3216 2.76528 14.8785V16.7725C2.76528 17.3293 3.22048 17.7823 3.77991 17.7823H5.09139C5.49649 17.7823 5.8502 18.0551 5.95146 18.4455C6.19727 19.3935 6.57632 20.3024 7.078 21.1468C7.28438 21.4942 7.22824 21.9366 6.94151 22.222L6.01245 23.1467C5.61084 23.546 5.62132 24.1861 6.0121 24.5746L7.3578 25.914C7.74787 26.3028 8.3912 26.3141 8.79234 25.9143L9.72169 24.9893C9.93298 24.779 10.3725 24.6006 10.802 24.8535Z" fill="#2FC7F7"/>
<path d="M16.1481 22.3915C12.5105 22.3915 9.55127 19.446 9.55127 15.8255C9.55127 12.2049 12.5105 9.2594 16.1481 9.2594C19.7856 9.2594 22.7448 12.2049 22.7448 15.8255C22.7448 19.446 19.7856 22.3915 16.1481 22.3915ZM16.1481 11.0276C13.4901 11.0276 11.3278 13.1799 11.3278 15.8255C11.3278 18.471 13.4902 20.6233 16.1481 20.6233C18.806 20.6233 20.9683 18.471 20.9683 15.8255C20.9683 13.1799 18.806 11.0276 16.1481 11.0276Z" fill="#2FC7F7"/>
</svg>
