<svg width="55" height="57" viewBox="0 0 55 57" fill="none" xmlns="http://www.w3.org/2000/svg">
<path fill-rule="evenodd" clip-rule="evenodd" d="M0.0322266 4.0669C0.0322266 1.85776 1.82309 0.0668945 4.03223 0.0668945H50.9971C53.2062 0.0668945 54.9971 1.85776 54.9971 4.06689V52.3519C54.9971 54.5611 53.2062 56.352 50.9971 56.352H4.03223C1.82309 56.352 0.0322266 54.5611 0.0322266 52.352V4.0669Z" fill="#DCE0E5"/>
<g clip-path="url(#clip0)">
<path d="M31.1593 16.233V19.1222H23.9029V16.233H21.8872V20.13C21.8872 20.6866 22.3384 21.1378 22.895 21.1378H32.1671C32.7241 21.1378 33.175 20.6866 33.175 20.13V16.233H31.1593Z" fill="#838A91"/>
<path d="M38.7856 15.2252H30.7333C30.1559 14.0205 28.9172 13.2095 27.5314 13.2095C26.1524 13.2095 24.9322 14.0073 24.3403 15.2252H16.2437C15.687 15.2252 15.2358 15.6763 15.2358 16.233V42.2017C15.2358 42.7583 15.687 43.2095 16.2437 43.2095H38.7857C39.3423 43.2095 39.7935 42.7583 39.7935 42.2017V16.233C39.7935 15.6763 39.3423 15.2252 38.7856 15.2252ZM37.7778 41.1938H17.2515V17.2408H25.0454C25.5131 17.2408 25.9196 16.919 26.0267 16.4638C26.1715 15.8473 26.6932 15.2252 27.5314 15.2252C28.2671 15.2252 28.8836 15.723 29.0304 16.4362C29.1268 16.9049 29.539 17.2408 30.0174 17.2408H37.7777V41.1938H37.7778Z" fill="#838A91"/>
<path d="M24.5752 24.2621H20.6446C20.0879 24.2621 19.6367 24.7133 19.6367 25.2699V29.2005C19.6367 29.7571 20.0879 30.2083 20.6446 30.2083H24.5752C25.1318 30.2083 25.583 29.7571 25.583 29.2005V25.2699C25.583 24.7133 25.1318 24.2621 24.5752 24.2621ZM23.5674 28.1926H21.6525V26.2777H23.5674V28.1926Z" fill="#838A91"/>
<path d="M33.7464 26.2106H28.6064C28.0498 26.2106 27.5986 26.6617 27.5986 27.2184C27.5986 27.7751 28.0498 28.2263 28.6064 28.2263H33.7464C34.3031 28.2263 34.7542 27.7751 34.7542 27.2184C34.7543 26.6617 34.3031 26.2106 33.7464 26.2106Z" fill="#838A91"/>
<path d="M24.5752 32.3248H20.6446C20.0879 32.3248 19.6367 32.776 19.6367 33.3326V37.2632C19.6367 37.8199 20.0879 38.271 20.6446 38.271H24.5752C25.1318 38.271 25.583 37.8199 25.583 37.2632V33.3326C25.583 32.776 25.1318 32.3248 24.5752 32.3248ZM23.5674 36.2554H21.6525V34.3405H23.5674V36.2554Z" fill="#838A91"/>
<path d="M33.7464 34.2733H28.6064C28.0498 34.2733 27.5986 34.7245 27.5986 35.2811C27.5986 35.8378 28.0498 36.2889 28.6064 36.2889H33.7464C34.3031 36.2889 34.7542 35.8378 34.7542 35.2811C34.7542 34.7245 34.3031 34.2733 33.7464 34.2733Z" fill="#838A91"/>
</g>
<defs>
<clipPath id="clip0">
<rect x="12.5146" y="13.2095" width="30" height="30" fill="white"/>
</clipPath>
</defs>
</svg>


