<svg width="22" height="22" viewBox="0 0 22 22" fill="none" xmlns="http://www.w3.org/2000/svg">
<path fill-rule="evenodd" clip-rule="evenodd" d="M1.16455 3.2931C1.16455 2.22945 2.02681 1.36719 3.09047 1.36719H19.2386C20.3023 1.36719 21.1646 2.22945 21.1646 3.29311V19.4413C21.1646 20.5049 20.3023 21.3672 19.2386 21.3672H3.09047C2.02681 21.3672 1.16455 20.5049 1.16455 19.4413V3.2931Z" fill="white" stroke="#53C1F6" stroke-width="0.962959"/>
<path fill-rule="evenodd" clip-rule="evenodd" d="M6.90629 11.1183L14.7842 14.5097L15.6773 6.94434L6.90629 11.1183ZM14.97 15.0363C14.939 15.0363 14.9082 15.0299 14.8794 15.0177L6.29569 11.3225C6.21751 11.2889 6.16636 11.2145 6.16459 11.132C6.16304 11.0496 6.21109 10.9735 6.28794 10.9368L15.8449 6.3893C15.9173 6.35477 16.0039 6.36095 16.0704 6.40592C16.1368 6.45067 16.1722 6.52674 16.1631 6.6043L15.1899 14.8473C15.1819 14.9146 15.1409 14.9747 15.0796 15.0081C15.0457 15.0269 15.0078 15.0363 14.97 15.0363Z" fill="#2FC7F7"/>
<path fill-rule="evenodd" clip-rule="evenodd" d="M10.3283 16.3672C10.3081 16.3672 10.2877 16.3644 10.2676 16.3591C10.1717 16.3327 10.1061 16.2481 10.1068 16.1524L10.1345 12.743C10.1349 12.692 10.1544 12.643 10.1892 12.6047L15.7729 6.44082C15.8535 6.35217 15.9935 6.34301 16.0856 6.42015C16.1777 6.49771 16.1872 6.63217 16.1068 6.72082L10.577 12.8252L10.5559 15.3859L11.7761 13.4615C11.8401 13.3609 11.9763 13.3292 12.0806 13.3905C12.1849 13.4517 12.2179 13.5832 12.1541 13.6833L10.5174 16.2651C10.4764 16.3297 10.404 16.3672 10.3283 16.3672Z" fill="#2FC7F7"/>
<path fill-rule="evenodd" clip-rule="evenodd" d="M6.90629 11.1183L14.7842 14.5097L15.6773 6.94434L6.90629 11.1183ZM14.97 15.0363C14.939 15.0363 14.9082 15.0299 14.8794 15.0177L6.29569 11.3225C6.21751 11.2889 6.16636 11.2145 6.16459 11.132C6.16304 11.0496 6.21109 10.9735 6.28794 10.9368L15.8449 6.3893C15.9173 6.35477 16.0039 6.36095 16.0704 6.40592C16.1368 6.45067 16.1722 6.52674 16.1631 6.6043L15.1899 14.8473C15.1819 14.9146 15.1409 14.9747 15.0796 15.0081C15.0457 15.0269 15.0078 15.0363 14.97 15.0363Z" stroke="#53C1F6" stroke-width="0.288888"/>
<path fill-rule="evenodd" clip-rule="evenodd" d="M10.3283 16.3672C10.3081 16.3672 10.2877 16.3644 10.2676 16.3591C10.1717 16.3327 10.1061 16.2481 10.1068 16.1524L10.1345 12.743C10.1349 12.692 10.1544 12.643 10.1892 12.6047L15.7729 6.44082C15.8535 6.35217 15.9935 6.34301 16.0856 6.42015C16.1777 6.49771 16.1872 6.63217 16.1068 6.72082L10.577 12.8252L10.5559 15.3859L11.7761 13.4615C11.8401 13.3609 11.9763 13.3292 12.0806 13.3905C12.1849 13.4517 12.2179 13.5832 12.1541 13.6833L10.5174 16.2651C10.4764 16.3297 10.404 16.3672 10.3283 16.3672Z" stroke="#53C1F6" stroke-width="0.288888"/>
</svg>
