<svg width="31" height="31" viewBox="0 0 31 31" fill="none" xmlns="http://www.w3.org/2000/svg">
<path fill-rule="evenodd" clip-rule="evenodd" d="M15.5591 30.1207C23.8434 30.1207 30.5591 23.405 30.5591 15.1207C30.5591 6.83646 23.8434 0.120728 15.5591 0.120728C7.27481 0.120728 0.559082 6.83646 0.559082 15.1207C0.559082 23.405 7.27481 30.1207 15.5591 30.1207Z" fill="#2FC7F7"/>
<path fill-rule="evenodd" clip-rule="evenodd" d="M15.5594 16.6959C16.3344 16.6959 17.1844 16.8084 18.1094 17.0334C19.1594 17.2959 20.0094 17.6459 20.6594 18.0834C21.4344 18.5959 21.8219 19.1709 21.8219 19.8084V21.3834H9.29688V19.8084C9.29688 19.1709 9.68437 18.5959 10.4594 18.0834C11.1094 17.6459 11.9594 17.2959 13.0094 17.0334C13.9344 16.8084 14.7844 16.6959 15.5594 16.6959ZM15.5589 15.1208C14.9964 15.1208 14.4777 14.9802 14.0027 14.6989C13.5277 14.4176 13.1496 14.0395 12.8683 13.5645C12.5871 13.0895 12.4464 12.5708 12.4464 12.0083C12.4464 11.4458 12.5871 10.9208 12.8683 10.4333C13.1496 9.94577 13.5277 9.5614 14.0027 9.28015C14.4777 8.9989 14.9964 8.85828 15.5589 8.85828C16.1214 8.85828 16.6402 8.9989 17.1152 9.28015C17.5902 9.5614 17.9683 9.94577 18.2496 10.4333C18.5308 10.9208 18.6714 11.4458 18.6714 12.0083C18.6714 12.5708 18.5308 13.0895 18.2496 13.5645C17.9683 14.0395 17.5902 14.4176 17.1152 14.6989C16.6402 14.9802 16.1214 15.1208 15.5589 15.1208Z" fill="white"/>
</svg>
