<svg width="22" height="22" viewBox="0 0 22 22" fill="none" xmlns="http://www.w3.org/2000/svg">
<path fill-rule="evenodd" clip-rule="evenodd" d="M0.719727 3.2931C0.719727 2.22945 1.58199 1.36719 2.64564 1.36719H18.7938C19.8575 1.36719 20.7197 2.22945 20.7197 3.29311V19.4413C20.7197 20.5049 19.8575 21.3672 18.7938 21.3672H2.64564C1.58199 21.3672 0.719727 20.5049 0.719727 19.4413V3.2931Z" fill="white" stroke="#53C1F6" stroke-width="0.962959"/>
<path fill-rule="evenodd" clip-rule="evenodd" d="M15.0507 12.5219C15.4498 12.9237 15.8686 13.3 16.2234 13.7425C16.381 13.9409 16.5289 14.1392 16.6422 14.3681C16.8048 14.6936 16.657 15.0496 16.3761 15.0649H14.627C14.1737 15.1056 13.8189 14.9174 13.5135 14.597C13.272 14.3427 13.0454 14.0731 12.8138 13.8086C12.7202 13.7018 12.6167 13.6001 12.4985 13.5187C12.262 13.3611 12.055 13.4068 11.9171 13.6662C11.7791 13.9256 11.7446 14.2155 11.7348 14.5105C11.7151 14.9377 11.5919 15.0445 11.178 15.0649C10.2961 15.1056 9.45846 14.9682 8.67504 14.5105C7.99018 14.1036 7.45805 13.534 6.98997 12.883C6.08831 11.6217 5.39852 10.2332 4.77277 8.80912C4.64467 8.48871 4.74814 8.31578 5.08811 8.3107C5.65965 8.30052 6.22627 8.30052 6.79782 8.3107C7.02939 8.31578 7.18213 8.4531 7.27082 8.67689C7.58123 9.46013 7.95569 10.2027 8.42869 10.8944C8.55679 11.0775 8.6849 11.2606 8.8672 11.3928C9.06921 11.5352 9.22195 11.4894 9.3205 11.2555C9.37962 11.108 9.40918 10.9503 9.41904 10.7927C9.46338 10.2485 9.46831 9.70426 9.38948 9.16006C9.3402 8.81929 9.1579 8.6006 8.82779 8.53957C8.66026 8.50905 8.6849 8.44293 8.76866 8.3463C8.90662 8.17846 9.03965 8.07166 9.30572 8.07166H11.2815C11.5919 8.13269 11.6609 8.28018 11.7052 8.6006V10.8639C11.7003 10.991 11.7643 11.3623 11.9861 11.4437C12.1585 11.5047 12.2768 11.3572 12.3802 11.2453C12.8532 10.7265 13.1883 10.1162 13.4938 9.48047C13.6268 9.20074 13.745 8.91084 13.8534 8.62094C13.9372 8.40733 14.0653 8.30052 14.3018 8.30561H16.2037C16.2579 8.30561 16.317 8.30561 16.3712 8.31578C16.6915 8.37173 16.7801 8.51414 16.6816 8.83964C16.5239 9.34824 16.2234 9.77037 15.9278 10.1925C15.6124 10.6452 15.2724 11.0826 14.9571 11.5403C14.6664 11.9523 14.691 12.1608 15.0507 12.5219Z" stroke="#53C1F6" stroke-width="0.722219" stroke-miterlimit="10"/>
</svg>
