<svg width="22" height="22" viewBox="0 0 22 22" fill="none" xmlns="http://www.w3.org/2000/svg">
<path fill-rule="evenodd" clip-rule="evenodd" d="M0.635742 2.7931C0.635742 1.72945 1.498 0.867188 2.56166 0.867188H19.7098C20.7735 0.867188 21.6357 1.72945 21.6357 2.79311V19.9413C21.6357 21.0049 20.7735 21.8672 19.7098 21.8672H2.56166C1.498 21.8672 0.635742 21.0049 0.635742 19.9413V2.7931Z" fill="#53C1F6" fill-opacity="0.2"/>
<path d="M9.47548 8.07166C9.37621 8.07166 9.21652 8.10953 9.0784 8.25262C8.94029 8.3957 8.55615 8.745 8.55615 9.45622C8.55615 10.1674 9.09135 10.8534 9.16472 10.9502C9.2381 11.047 10.1963 12.5536 11.7155 13.1302C12.596 13.4668 12.9629 13.5426 13.1744 13.5426C13.3254 13.5426 13.3945 13.5005 13.5067 13.4921C13.7786 13.4668 14.3872 13.1428 14.5124 12.8061C14.6375 12.4694 14.6375 12.1791 14.5987 12.1201C14.5598 12.0612 14.4606 12.0233 14.3138 11.9518C14.1628 11.8803 13.429 11.531 13.2952 11.4805C13.2348 11.4594 13.183 11.4426 13.1355 11.4426C13.0708 11.4426 13.0147 11.472 12.9586 11.552C12.8593 11.6951 12.5744 12.0233 12.4881 12.1201C12.4406 12.1748 12.3888 12.2043 12.3284 12.2043C12.2809 12.2043 12.2292 12.1875 12.1644 12.158C12.0133 12.0865 11.5343 11.935 10.9645 11.4426C10.52 11.0596 10.2222 10.5883 10.1358 10.441C10.0495 10.2979 10.1272 10.2179 10.2006 10.1464C10.2696 10.0791 10.3473 9.97806 10.425 9.89389C10.4984 9.80972 10.5243 9.75081 10.5718 9.65401C10.6192 9.55722 10.5977 9.47305 10.5588 9.40151C10.5243 9.32997 10.2222 8.61875 10.097 8.32837C10.0064 8.11374 9.91141 8.08428 9.83372 8.08428C9.80782 8.08428 9.78192 8.08849 9.76034 8.08849C9.67402 8.08428 9.57475 8.07166 9.47548 8.07166Z" fill="#2FC7F7"/>
<path d="M5.2755 17.3344C5.17192 17.3344 5.07265 17.2923 4.99927 17.2208C4.89569 17.1156 4.86116 16.9683 4.90864 16.8336L5.94882 13.8372L5.88407 13.7236C5.37909 12.8188 5.11149 11.7877 5.11149 10.7524C5.11149 7.29314 8.01623 4.48193 11.5856 4.48193C15.1594 4.48614 18.0641 7.29735 18.0641 10.7567C18.0641 14.2118 15.1594 17.0272 11.5856 17.0272C10.5929 17.0272 9.60024 16.8041 8.71112 16.3791L8.60322 16.3286L5.39204 17.3218C5.35319 17.3302 5.31435 17.3344 5.2755 17.3344ZM11.5856 5.24365C8.44352 5.24365 5.88839 7.71819 5.88839 10.7567C5.88839 11.7625 6.16894 12.7472 6.70413 13.6015C6.76456 13.6983 6.77751 13.812 6.73866 13.9214L5.88839 16.3707L8.52553 15.5542C8.56437 15.5416 8.60322 15.5374 8.64206 15.5374C8.7068 15.5374 8.77155 15.5542 8.82766 15.5837C9.66498 16.034 10.6188 16.2697 11.5813 16.2697C14.7234 16.2697 17.2829 13.7993 17.2829 10.7567C17.2872 7.71819 14.7321 5.24365 11.5856 5.24365Z" fill="#2FC7F7"/>
</svg>
