<svg width="17" height="16" viewBox="0 0 17 16" fill="none" xmlns="http://www.w3.org/2000/svg">
<rect width="17" height="16" fill="white"/>
<g clip-path="url(#clip0)">
<rect x="-957" y="-457" width="1440" height="983" fill="#F4F8F9"/>
<g filter="url(#filter0_di)">
<path fill-rule="evenodd" clip-rule="evenodd" d="M-797.861 -2.2342C-797.861 -12.3151 -797.861 -17.3556 -795.899 -21.206C-794.174 -24.5929 -791.42 -27.3466 -788.033 -29.0723C-784.183 -31.0342 -779.142 -31.0342 -769.061 -31.0342H103.339C113.42 -31.0342 118.46 -31.0342 122.31 -29.0723C125.697 -27.3466 128.451 -24.5929 130.177 -21.206C132.139 -17.3556 132.139 -12.3151 132.139 -2.23418V400.166C132.139 410.247 132.139 415.287 130.177 419.138C128.451 422.525 125.697 425.278 122.31 427.004C118.46 428.966 113.42 428.966 103.339 428.966H-769.061C-779.142 428.966 -784.183 428.966 -788.033 427.004C-791.42 425.278 -794.174 422.525 -795.899 419.138C-797.861 415.287 -797.861 410.247 -797.861 400.166V-2.2342Z" fill="url(#paint0_linear)"/>
<path d="M-796.711 -2.2342C-796.711 -7.29364 -796.71 -11.0191 -796.47 -13.9629C-796.23 -16.8933 -795.759 -18.9479 -794.875 -20.6839C-793.259 -23.8545 -790.682 -26.4322 -787.511 -28.0476C-785.775 -28.9322 -783.72 -29.4033 -780.79 -29.6428C-777.846 -29.8833 -774.121 -29.8842 -769.061 -29.8842H103.339C108.398 -29.8842 112.124 -29.8833 115.067 -29.6428C117.998 -29.4033 120.052 -28.9322 121.788 -28.0476C124.959 -26.4322 127.537 -23.8545 129.152 -20.6839C130.037 -18.9479 130.508 -16.8933 130.747 -13.9629C130.988 -11.0191 130.989 -7.29363 130.989 -2.23418V400.166C130.989 405.225 130.988 408.951 130.747 411.895C130.508 414.825 130.037 416.88 129.152 418.616C127.537 421.786 124.959 424.364 121.788 425.979C120.052 426.864 117.998 427.335 115.067 427.574C112.124 427.815 108.398 427.816 103.339 427.816H-769.061C-774.121 427.816 -777.846 427.815 -780.79 427.574C-783.72 427.335 -785.775 426.864 -787.511 425.979C-790.682 424.364 -793.259 421.786 -794.875 418.616C-795.759 416.88 -796.23 414.825 -796.47 411.895C-796.71 408.951 -796.711 405.225 -796.711 400.166V-2.2342Z" stroke="url(#paint1_linear)" stroke-width="2.3"/>
</g>
<g filter="url(#filter1_d)">
<path fill-rule="evenodd" clip-rule="evenodd" d="M-13.3101 -2.38659C-13.3101 -4.59573 -11.5192 -6.3866 -9.31006 -6.3866H102.69C104.899 -6.3866 106.69 -4.59574 106.69 -2.3866V19.4318C106.69 21.6409 104.899 23.4318 102.69 23.4318H-9.31006C-11.5192 23.4318 -13.3101 21.6409 -13.3101 19.4318V-2.38659Z" fill="#2FC4F3"/>
<path d="M-12.3101 -2.38659C-12.3101 -4.04345 -10.9669 -5.3866 -9.31006 -5.3866H102.69C104.347 -5.3866 105.69 -4.04345 105.69 -2.3866V19.4318C105.69 21.0886 104.347 22.4318 102.69 22.4318H-9.31006C-10.9669 22.4318 -12.3101 21.0886 -12.3101 19.4318V-2.38659Z" stroke="#2FC4F3" stroke-width="2"/>
</g>
<path d="M3.55722 14.8925C3.49007 14.8925 3.4565 14.8598 3.38935 14.8271C3.32221 14.7616 3.25506 14.6634 3.28863 14.5651L4.12796 9.85031L0.602778 6.51065C0.535632 6.44517 0.502059 6.34694 0.535632 6.24872C0.569205 6.15049 0.636351 6.08501 0.737071 6.08501L5.60519 5.39743L7.78744 1.10826C7.82102 1.01004 7.92174 0.977295 8.02246 0.977295C8.12318 0.977295 8.2239 1.04278 8.25747 1.10826L10.4397 5.39743L15.3078 6.05227C15.4086 6.05227 15.5093 6.15049 15.5093 6.21598C15.5429 6.3142 15.5093 6.41243 15.4421 6.47791L11.9505 9.85031L12.7899 14.5651C12.8234 14.6634 12.7563 14.7616 12.6891 14.8271C12.622 14.8925 12.4877 14.8925 12.4205 14.8598L8.0896 12.6334L3.69151 14.8598C3.65794 14.8598 3.62437 14.8925 3.55722 14.8925ZM1.37496 6.51065L4.59799 9.58838C4.66514 9.65386 4.69871 9.71935 4.66514 9.81757L3.89295 14.1395L7.92174 12.0768C7.98888 12.044 8.0896 12.044 8.15675 12.0768L12.152 14.1067L11.3798 9.78483C11.3798 9.6866 11.3798 9.62112 11.4469 9.55564L14.67 6.47791L10.2047 5.85582C10.104 5.85582 10.0368 5.79033 10.0033 5.72485L8.02246 1.79584L6.04164 5.72485C6.00806 5.79033 5.94092 5.85582 5.8402 5.85582L1.37496 6.51065Z" fill="#2FC4F3" stroke="#2FC4F3" stroke-width="0.962959"/>
<path d="M3.55722 14.8078C3.49007 14.8078 3.4565 14.7752 3.38935 14.7427C3.32221 14.6776 3.25506 14.58 3.28863 14.4823L4.12796 9.79625L0.602778 6.47694C0.535632 6.41186 0.502059 6.31423 0.535632 6.2166C0.569205 6.11898 0.636351 6.05389 0.737071 6.05389L5.60519 5.3705L7.78744 1.10746C7.82102 1.00984 7.92174 0.977295 8.02246 0.977295C8.12318 0.977295 8.2239 1.04238 8.25747 1.10746L10.4397 5.3705L15.3078 6.02135C15.4086 6.02135 15.5093 6.11898 15.5093 6.18406C15.5429 6.28169 15.5093 6.37931 15.4421 6.4444L11.9505 9.79625L12.7899 14.4823C12.8234 14.58 12.7563 14.6776 12.6891 14.7427C12.622 14.8078 12.4877 14.8078 12.4205 14.7752L8.0896 12.5623L3.69151 14.7752C3.65794 14.7752 3.62437 14.8078 3.55722 14.8078Z" fill="white" stroke="white" stroke-width="0.962959"/>
</g>
<defs>
<filter id="filter0_di" x="-816.861" y="-49.0342" width="970" height="500" filterUnits="userSpaceOnUse" color-interpolation-filters="sRGB">
<feFlood flood-opacity="0" result="BackgroundImageFix"/>
<feColorMatrix in="SourceAlpha" type="matrix" values="0 0 0 0 0 0 0 0 0 0 0 0 0 0 0 0 0 0 127 0"/>
<feOffset dx="1" dy="2"/>
<feGaussianBlur stdDeviation="10"/>
<feColorMatrix type="matrix" values="0 0 0 0 0.0705882 0 0 0 0 0.239843 0 0 0 0 0.396078 0 0 0 0.05 0"/>
<feBlend mode="normal" in2="BackgroundImageFix" result="effect1_dropShadow"/>
<feBlend mode="normal" in="SourceGraphic" in2="effect1_dropShadow" result="shape"/>
<feColorMatrix in="SourceAlpha" type="matrix" values="0 0 0 0 0 0 0 0 0 0 0 0 0 0 0 0 0 0 127 0" result="hardAlpha"/>
<feOffset dx="-18.4" dy="-13.8"/>
<feGaussianBlur stdDeviation="92"/>
<feComposite in2="hardAlpha" operator="arithmetic" k2="-1" k3="1"/>
<feColorMatrix type="matrix" values="0 0 0 0 1 0 0 0 0 1 0 0 0 0 1 0 0 0 0.18 0"/>
<feBlend mode="normal" in2="shape" result="effect2_innerShadow"/>
</filter>
<filter id="filter1_d" x="-29.3101" y="-21.3866" width="154" height="63.8184" filterUnits="userSpaceOnUse" color-interpolation-filters="sRGB">
<feFlood flood-opacity="0" result="BackgroundImageFix"/>
<feColorMatrix in="SourceAlpha" type="matrix" values="0 0 0 0 0 0 0 0 0 0 0 0 0 0 0 0 0 0 127 0"/>
<feOffset dx="1" dy="2"/>
<feGaussianBlur stdDeviation="8.5"/>
<feColorMatrix type="matrix" values="0 0 0 0 0 0 0 0 0 0 0 0 0 0 0 0 0 0 0.07 0"/>
<feBlend mode="normal" in2="BackgroundImageFix" result="effect1_dropShadow"/>
<feBlend mode="normal" in="SourceGraphic" in2="effect1_dropShadow" result="shape"/>
</filter>
<linearGradient id="paint0_linear" x1="-1039.82" y1="-17.6755" x2="-360.466" y2="1081.43" gradientUnits="userSpaceOnUse">
<stop offset="0.251529" stop-color="white"/>
<stop offset="1" stop-color="#F7FAFF"/>
</linearGradient>
<linearGradient id="paint1_linear" x1="-1074.54" y1="-101.951" x2="-978.646" y2="638.446" gradientUnits="userSpaceOnUse">
<stop offset="0.263331" stop-color="white"/>
<stop offset="0.507086" stop-color="#DBE6F2" stop-opacity="0"/>
<stop offset="1" stop-color="#D3DDE6"/>
</linearGradient>
<clipPath id="clip0">
<rect x="-957" y="-457" width="1440" height="983" fill="white"/>
</clipPath>
</defs>
</svg>
