<svg width="17" height="16" viewBox="0 0 17 16" fill="none" xmlns="http://www.w3.org/2000/svg">
<path d="M3.8624 14.6677C3.79525 14.6677 3.76168 14.6349 3.69453 14.6022C3.62738 14.5367 3.56024 14.4385 3.59381 14.3403L4.43314 9.62546L0.907954 6.2858C0.840808 6.22032 0.807234 6.12209 0.840808 6.02387C0.874381 5.92564 0.941527 5.86016 1.04225 5.86016L5.91036 5.17258L8.09262 0.883408C8.12619 0.785183 8.22691 0.752441 8.32763 0.752441C8.42835 0.752441 8.52907 0.817925 8.56264 0.883408L10.7449 5.17258L15.613 5.82741C15.7137 5.82741 15.8145 5.92564 15.8145 5.99112C15.848 6.08935 15.8145 6.18757 15.7473 6.25306L12.2557 9.62546L13.095 14.3403C13.1286 14.4385 13.0615 14.5367 12.9943 14.6022C12.9272 14.6677 12.7929 14.6677 12.7257 14.6349L8.39478 12.4085L3.99669 14.6349C3.96312 14.6349 3.92954 14.6677 3.8624 14.6677ZM1.68014 6.2858L4.90317 9.36352C4.97031 9.42901 5.00389 9.49449 4.97031 9.59272L4.19813 13.9146L8.22691 11.8519C8.29406 11.8192 8.39478 11.8192 8.46193 11.8519L12.4571 13.8819L11.685 9.55997C11.685 9.46175 11.685 9.39627 11.7521 9.33078L14.9751 6.25306L10.5099 5.63096C10.4092 5.63096 10.342 5.56548 10.3085 5.5L8.32763 1.57099L6.34681 5.5C6.31324 5.56548 6.24609 5.63096 6.14537 5.63096L1.68014 6.2858Z" fill="#2FC4F3" stroke="#2FC4F3" stroke-width="0.962959"/>
</svg>
